<svg width="22" height="28" viewBox="0 0 22 28" fill="none" xmlns="http://www.w3.org/2000/svg">
<g clip-path="url(#clip0_236_1503)">
<path d="M18.3747 14.3511C18.3439 10.9328 21.1665 9.29169 21.2912 9.21563C19.705 6.89311 17.232 6.56941 16.3548 6.53057C14.2491 6.31855 12.2455 7.77194 11.1805 7.77194C10.1155 7.77194 8.4647 6.56617 6.72321 6.60016C4.42497 6.63091 2.31447 7.93541 1.13136 9.98279C-1.25104 14.1164 0.519578 20.2439 2.84533 23.5958C3.97827 25.237 5.3297 27.0804 7.10518 27.0141C8.81915 26.9477 9.46654 25.9086 11.535 25.9086C13.6034 25.9086 14.1844 27.0141 15.9955 26.9865C17.8357 26.9477 19.0026 25.3066 20.1258 23.6654C21.4271 21.7605 21.9677 19.917 21.9984 19.8199C21.958 19.8053 18.4086 18.4426 18.373 14.3511H18.3747Z" fill="white"/>
<path d="M14.97 4.31163C15.9152 3.1706 16.5513 1.58126 16.3765 0C15.0186 0.0517914 13.3726 0.907967 12.3999 2.04414C11.5243 3.05893 10.7555 4.68064 10.9643 6.22791C12.4776 6.34282 14.0297 5.4559 14.97 4.31163Z" fill="white"/>
</g>
<defs>
<clipPath id="clip0_236_1503">
<rect width="22" height="27.0157" fill="white"/>
</clipPath>
</defs>
</svg>
