<svg width="143" height="193" viewBox="0 0 143 193" fill="none" xmlns="http://www.w3.org/2000/svg">
<path d="M121.771 20.862C107.992 7.55669 91.1158 0.797852 71.5934 0.797852C52.071 0.797852 35.3123 7.53738 21.5525 20.862C7.81236 34.1479 0.834473 50.3885 0.834473 69.1587C0.834473 87.929 7.81236 104.17 21.5525 117.455C35.3123 130.761 52.1494 137.5 71.5934 137.5C91.0374 137.5 108.012 130.761 121.771 117.455C135.512 104.17 142.489 87.9097 142.489 69.1587C142.489 50.4078 135.512 34.1479 121.771 20.862ZM71.6522 108.65C49.5229 108.65 31.5685 90.9608 31.5685 69.1394C31.5685 47.318 49.5229 29.6485 71.6522 29.6485C93.7815 29.6485 111.736 47.3373 111.736 69.1394C111.736 90.9415 93.7815 108.65 71.6522 108.65Z" fill="#ED32D1"/>
<path d="M71.9458 192.556C51.0122 192.556 33.8615 182.649 21.4346 173.94V142.386L21.513 142.328C21.709 142.598 42.0938 164.825 71.9458 164.825C101.798 164.825 119.223 144.356 120.517 142.579V174.751C108.521 183.152 92.1347 192.537 71.9458 192.537V192.556Z" fill="#ED32D1"/>
<path d="M63.3411 89.7827C64.3604 90.7868 66.0656 90.7868 67.1437 89.7827L91.4487 71.9007C92.5071 70.8772 92.5071 69.2358 91.4487 68.1351L67.1437 50.2917C66.0656 49.2875 64.38 49.2875 63.3411 50.2917C63.3411 50.2917 62.6943 50.929 62.6943 52.4545V87.4847C62.6943 87.4847 62.5571 88.9137 63.3411 89.7827Z" fill="#ED32D1"/>
</svg>
