<svg width="135" height="135" viewBox="0 0 135 135" fill="none" xmlns="http://www.w3.org/2000/svg">
<path d="M114.443 18.4565C101.389 6.27131 85.4143 0.0917969 66.9503 0.0917969C48.4864 0.0917969 33.0998 6.69615 19.9672 19.7118C6.73667 32.8239 0.0332031 48.7748 0.0332031 67.1009C0.0332031 85.427 6.91309 101.301 20.4964 114.606C33.8054 127.641 49.4468 134.245 66.97 134.245C87.9624 134.245 105.721 128.278 119.755 116.518C120.48 115.765 120.833 114.934 120.872 113.853C120.872 112.81 120.519 111.902 119.716 111.053L106.289 97.0329C105.446 96.164 104.584 95.6426 103.623 95.4301C103.545 95.4301 103.349 95.3915 103.173 95.3915C102.781 95.3915 102.447 95.4688 102.016 95.8936C102.016 95.8936 101.977 95.9129 101.918 95.9515L101.84 95.8357C101.154 96.2798 100.448 96.7626 99.6837 97.3033C95.1559 100.49 88.3348 105.279 71.7329 105.279C55.1311 105.279 38.6076 93.2287 33.7662 75.9453H131.241C132.241 75.9453 132.966 75.6557 133.613 75.0184C134.26 74.3812 134.553 73.6667 134.553 72.6818V64.5326C134.553 46.0906 127.968 31.0087 114.423 18.4372L114.443 18.4565ZM34.7462 52.7335C39.8424 37.7868 52.975 27.4748 68.0088 27.4748C83.0426 27.4748 96.1555 37.7675 101.252 52.7335H34.7462Z" fill="#2C3AF1"/>
</svg>
