<svg width="82" height="191" viewBox="0 0 82 191" fill="none" xmlns="http://www.w3.org/2000/svg">
<path d="M78.6602 61.0806H56.6093V44.2994C56.6093 40.302 58.001 36.826 60.7647 33.9873C63.7048 31.0907 67.1546 29.6424 71.0747 29.6424H75.0145C75.9161 29.6424 76.5826 29.372 77.249 28.7154C77.8958 28.0589 78.1898 27.4023 78.1898 26.514V3.12838C78.1898 2.24007 77.9154 1.56419 77.249 0.926927C76.5826 0.289665 75.9161 0 75.0145 0H69.8594C56.1781 0 44.7509 4.44153 34.9897 13.5563C25.3853 22.6132 20.7007 33.1956 20.7007 45.9022V61.0806H4.0596C3.11876 61.0806 2.39352 61.351 1.7271 61.9689C1.15867 62.529 0.884277 63.1855 0.884277 64.0738V87.4594C0.884277 88.3477 1.15865 89.0043 1.82508 89.6609C2.4915 90.2982 3.15796 90.5878 4.0596 90.5878H20.7007V187.432C20.7007 188.34 20.9751 188.997 21.6415 189.634C22.2883 190.29 22.9743 190.561 23.876 190.561H53.4536C54.3552 190.561 55.0217 190.29 55.6881 189.634C56.3349 188.997 56.6289 188.321 56.6289 187.432V90.5878H78.6798C79.5814 90.5878 80.2479 90.3175 80.9143 89.6609C81.5808 89.0043 81.8552 88.3477 81.8552 87.4594V64.0738C81.8552 63.1855 81.5808 62.5097 80.9143 61.8724C80.3459 61.351 79.6206 61.0806 78.6798 61.0806H78.6602Z" fill="#2C3AF1"/>
</svg>
