<svg width="75" height="192" viewBox="0 0 75 192" fill="none" xmlns="http://www.w3.org/2000/svg">
<path d="M54.8897 191.589C56.0462 191.647 57.2418 191.685 58.4375 191.685C62.4948 191.724 66.5522 191.704 70.6096 191.685C71.7268 191.685 72.8636 191.685 73.9809 191.685C74.5493 191.685 75.0002 191.222 75.0002 190.681V157.756C75.0002 157.196 74.5297 156.752 73.9809 156.752C69.3747 156.732 64.7489 156.636 60.1427 156.674C53.6353 156.732 47.8727 149.375 46.089 143.813C44.5013 138.85 43.8349 129.195 43.6585 126.221L43.6193 125.313H44.3053L43.6193 125.275C43.6389 124.097 43.6977 4.00173 43.6977 2.78514C43.6977 2.08994 43.5017 1.62648 42.992 1.12439C42.4824 0.622309 42.012 0.429199 41.3064 0.429199H0.693529L0.458329 0.564376L0.105469 0.950596V1.18233C0.105469 1.18233 0.183905 1.22095 0.262309 1.27888L0.967909 1.81959L2.67317 3.48033C6.02491 6.55078 7.80858 10.4902 7.94579 15.1249V15.9359C7.88699 18.5429 7.92619 21.5168 7.94579 25.0314V25.8618L7.96541 138.773C7.98501 139.797 8.02419 140.82 8.06339 141.844C8.49461 152.87 10.9251 164.302 17.6482 173.359C23.7637 181.624 32.7016 187.012 42.6392 189.735C46.7358 190.855 50.754 191.357 54.8897 191.55V191.589Z" fill="#2C3AF1"/>
</svg>
