<svg width="137" height="132" viewBox="0 0 137 132" fill="none" xmlns="http://www.w3.org/2000/svg">
<path d="M120.125 14.1114C109.482 4.78415 97.1336 0.0722656 83.3935 0.0722656C69.6533 0.0722656 59.5393 4.3593 50.3269 13.2037L43.9566 19.2867V5.20899C43.9566 4.28206 43.6822 3.56756 43.0746 2.91098C42.4278 2.2351 41.8006 1.94543 40.9185 1.94543H1.85411C1.4229 1.94543 1.2073 2.04199 0.913284 2.37027L0.697674 2.602C0.36446 2.93029 0.305664 3.16202 0.305664 3.45169C0.305664 3.93446 0.384073 4.1662 0.893694 4.49448L1.5209 4.99656L3.14777 6.59938C6.46031 9.6312 8.18517 13.5513 8.18517 18.1667V128.432C8.18517 129.688 8.61639 130.267 8.98881 130.634C9.63563 131.271 10.3609 131.561 11.3605 131.561H40.9185C41.8398 131.561 42.5062 131.29 43.153 130.634C43.5254 130.267 43.9566 129.688 43.9566 128.432V57.1942C43.9566 49.547 46.7399 42.8654 52.2282 37.3618C57.7556 31.9161 64.4395 29.1739 72.123 29.1739C79.8065 29.1739 86.6276 31.9161 92.1354 37.3425C97.5648 42.904 100.289 49.547 100.289 57.1942V128.432C100.289 129.34 100.544 129.919 101.171 130.46L101.446 130.711C101.995 131.31 102.583 131.541 103.465 131.541H133.042C134.022 131.541 134.767 131.252 135.414 130.615C135.786 130.248 136.218 129.668 136.218 128.413V47.1718C136.218 34.3493 130.945 23.5351 120.125 14.1114Z" fill="#2C3AF1"/>
</svg>
