<svg width="133" height="187" viewBox="0 0 133 187" fill="none" xmlns="http://www.w3.org/2000/svg">
<path d="M132.734 78.998V3.39547C132.714 2.14026 132.302 1.56092 131.93 1.19402C131.303 0.556754 130.597 0.26709 129.637 0.26709H100.961C100.079 0.26709 99.4319 0.537443 98.8047 1.19402C98.4519 1.56092 98.0207 2.14026 98.0207 3.39547V72.7798C98.0207 80.427 95.3353 87.1086 90.0039 92.6122C84.6333 98.0579 78.1651 100.8 70.6972 100.8C63.2293 100.8 56.6238 98.0579 51.2728 92.6315C46.0198 87.07 43.3736 80.427 43.3736 72.7798V3.39547C43.3736 2.48786 43.1188 1.90852 42.5112 1.36782L42.2564 1.11678C41.7076 0.518137 41.1391 0.286405 40.2963 0.286405H24.6941H2.23153C1.80031 0.286405 1.56514 0.382955 1.29073 0.711242L1.07509 0.942979C0.741872 1.27127 0.683105 1.503 0.683105 1.81197C0.683105 2.29475 0.781086 2.52648 1.27111 2.85476L1.89835 3.35685L3.52519 4.95966C6.81812 7.99148 8.56261 11.9116 8.56261 16.5269V82.8409C8.56261 92.0522 11.2087 100.221 16.5989 107.598C19.2647 112.116 22.734 115.998 27.007 119.203C30.2411 121.598 33.9261 123.568 37.9834 125.171C44.7653 128.338 52.0568 129.94 59.7991 129.94C61.622 129.94 63.3664 129.94 65.0325 129.902C65.6401 129.902 66.2086 129.94 66.8358 129.94C79.1647 129.94 89.5335 128.009 98.0011 124.186V135.193C97.5503 139.171 96.0018 142.724 93.2969 145.853C90.1216 149.483 86.2406 151.472 81.6932 151.839H62.1316C60.6028 151.839 59.3091 152.36 58.231 153.442C57.153 154.504 56.6042 155.798 56.6042 157.285V180.593C56.6042 182.099 57.153 183.374 58.231 184.436C59.3091 185.498 60.6028 186.039 62.1316 186.039H80.9288C89.1219 186.039 96.2566 184.745 102.352 182.177C107.703 180.574 112.427 178.353 116.445 175.495C127.285 167.655 132.714 155.508 132.792 139.017V79.1718C132.792 79.1718 132.792 79.0752 132.792 79.0366L132.734 78.998Z" fill="#2C3AF1"/>
</svg>
