<svg width="118" height="135" viewBox="0 0 118 135" fill="none" xmlns="http://www.w3.org/2000/svg">
<path d="M100.866 97.8438C100.18 97.11 99.4741 96.7817 98.5724 96.6851C97.6708 96.5886 96.7888 96.7817 95.9655 97.3224C88.0664 102.42 79.9909 104.989 71.9545 104.989C62.2521 104.989 53.667 101.243 46.4539 93.8271C39.28 86.3731 35.6539 77.3741 35.6539 67.0814C35.6539 56.7886 39.28 47.7704 46.4343 40.2391C53.6866 32.8044 62.2521 29.0387 71.9545 29.0387C79.9713 29.0387 88.0272 31.6457 95.9067 36.8018C96.73 37.2652 97.612 37.439 98.5724 37.3425C99.5329 37.2459 100.337 36.8983 101.081 36.2417L116.194 20.6771C117.115 19.8274 117.213 19.1515 117.193 18.5915C117.174 17.9349 116.978 17.0659 115.86 16.1004C103.198 5.47934 87.1844 0.0722656 68.2892 0.0722656C49.394 0.0722656 33.3802 6.67662 20.0516 19.7115C6.74268 32.7464 0 48.678 0 67.0814C0 85.4848 6.74268 101.416 20.0516 114.451C33.3606 127.486 49.59 134.09 68.2892 134.09C86.9884 134.09 103.688 128.046 117.076 116.151C117.213 115.957 117.252 115.745 117.213 115.378C117.134 114.722 116.84 114.142 116.272 113.544L100.866 97.8438Z" fill="#2C3AF1"/>
</svg>
