<svg width="149" height="40" viewBox="0 0 149 40" fill="none" xmlns="http://www.w3.org/2000/svg">
<path d="M40.7234 12.4583C38.5209 10.3295 35.8233 9.24805 32.7028 9.24805C29.5823 9.24805 26.9036 10.3264 24.7042 12.4583C22.5079 14.5841 21.3926 17.1825 21.3926 20.1858C21.3926 23.189 22.5079 25.7875 24.7042 27.9133C26.9036 30.0421 29.5949 31.1204 32.7028 31.1204C35.8108 31.1204 38.524 30.0421 40.7234 27.9133C42.9196 25.7875 44.035 23.1859 44.035 20.1858C44.035 17.1856 42.9196 14.5841 40.7234 12.4583ZM32.7122 26.5043C29.175 26.5043 26.3052 23.6741 26.3052 20.1827C26.3052 16.6913 29.175 13.8641 32.7122 13.8641C36.2494 13.8641 39.1193 16.6944 39.1193 20.1827C39.1193 23.671 36.2494 26.5043 32.7122 26.5043Z" fill="#231816"/>
<path d="M32.7594 39.929C29.4133 39.929 26.6719 38.344 24.6855 36.9505V31.9018L24.6981 31.8926C24.7294 31.9358 27.9878 35.4921 32.7594 35.4921C37.531 35.4921 40.3162 32.217 40.523 31.9327V37.0803C38.6056 38.4243 35.9864 39.9259 32.7594 39.9259V39.929Z" fill="#231816"/>
<path d="M31.3832 23.485C31.5461 23.6456 31.8187 23.6456 31.991 23.485L35.876 20.6238C36.0451 20.4601 36.0451 20.1975 35.876 20.0213L31.991 17.1664C31.8187 17.0057 31.5492 17.0057 31.3832 17.1664C31.3832 17.1664 31.2798 17.2684 31.2798 17.5125V23.1173C31.2798 23.1173 31.2579 23.3459 31.3832 23.485Z" fill="#231816"/>
<path d="M16.1226 25.0946C16.0129 24.9772 15.9001 24.9247 15.756 24.9092C15.6119 24.8938 15.4709 24.9247 15.3393 25.0112C14.0767 25.8269 12.7859 26.2378 11.5014 26.2378C9.9505 26.2378 8.57824 25.6384 7.42528 24.4519C6.27859 23.2593 5.69898 21.8195 5.69898 20.1726C5.69898 18.5258 6.27859 17.0829 7.42215 15.8779C8.58137 14.6883 9.9505 14.0858 11.5014 14.0858C12.7828 14.0858 14.0704 14.5029 15.3299 15.3279C15.4615 15.402 15.6025 15.4299 15.756 15.4144C15.9095 15.399 16.038 15.3433 16.157 15.2383L18.5726 12.7479C18.7199 12.612 18.7355 12.5039 18.7324 12.4142C18.7293 12.3092 18.6979 12.1702 18.5193 12.0157C16.4954 10.3163 13.9357 9.45117 10.9155 9.45117C7.89524 9.45117 5.33555 10.5079 3.20509 12.5935C1.07776 14.679 0 17.2281 0 20.1726C0 23.1172 1.07776 25.6662 3.20509 27.7518C5.33242 29.8374 7.92657 30.8941 10.9155 30.8941C13.9044 30.8941 16.5737 29.927 18.7136 28.0237C18.7355 27.9928 18.7418 27.9588 18.7355 27.9001C18.723 27.7951 18.676 27.7024 18.5851 27.6066L16.1226 25.0946Z" fill="#231816"/>
<path d="M66.3544 11.6974C64.6531 10.2051 62.6793 9.45117 60.4831 9.45117C58.2868 9.45117 56.6702 10.1371 55.1976 11.5522L54.1794 12.5255V10.273C54.1794 10.1247 54.1355 10.0104 54.0384 9.90537C53.935 9.79723 53.8348 9.75088 53.6938 9.75088H47.4497C47.3807 9.75088 47.3463 9.76633 47.2993 9.81885L47.2648 9.85593C47.2115 9.90846 47.2021 9.94553 47.2021 9.99188C47.2021 10.0691 47.2147 10.1062 47.2961 10.1587L47.3964 10.2391L47.6564 10.4955C48.1859 10.9806 48.4616 11.6078 48.4616 12.3463V29.9888C48.4616 30.1896 48.5306 30.2823 48.5901 30.341C48.6935 30.443 48.8094 30.4893 48.9692 30.4893H53.6938C53.841 30.4893 53.9476 30.4461 54.051 30.341C54.1105 30.2823 54.1794 30.1896 54.1794 29.9888V18.5907C54.1794 17.3671 54.6243 16.2981 55.5015 15.4175C56.3851 14.5462 57.4534 14.1074 58.6816 14.1074C59.9097 14.1074 61 14.5462 61.8804 15.4144C62.7482 16.3043 63.1837 17.3671 63.1837 18.5907V29.9888C63.1837 30.134 63.2245 30.2267 63.3247 30.3132L63.3686 30.3534C63.4563 30.4492 63.5503 30.4862 63.6913 30.4862H68.419C68.5757 30.4862 68.6947 30.4399 68.7981 30.3379C68.8577 30.2792 68.9266 30.1865 68.9266 29.9857V16.9871C68.9266 14.9355 68.0838 13.2052 66.3544 11.6974Z" fill="#231816"/>
<path d="M133.734 9.7729H130.209V7.0879C130.209 6.44832 130.431 5.89217 130.873 5.43797C131.343 4.97451 131.895 4.74278 132.521 4.74278H133.151C133.295 4.74278 133.402 4.69952 133.508 4.59447C133.611 4.48942 133.658 4.38437 133.658 4.24224V0.500541C133.658 0.358412 133.615 0.25027 133.508 0.148308C133.402 0.0463464 133.295 0 133.151 0H132.327C130.14 0 128.313 0.710644 126.753 2.16901C125.218 3.61811 124.469 5.31129 124.469 7.34435V9.7729H121.809C121.659 9.7729 121.543 9.81616 121.436 9.91503C121.346 10.0046 121.302 10.1097 121.302 10.2518V13.9935C121.302 14.1356 121.346 14.2407 121.452 14.3457C121.559 14.4477 121.665 14.4941 121.809 14.4941H124.469V29.9892C124.469 30.1344 124.513 30.2395 124.62 30.3414C124.723 30.4465 124.833 30.4897 124.977 30.4897H129.705C129.849 30.4897 129.955 30.4465 130.062 30.3414C130.165 30.2395 130.212 30.1313 130.212 29.9892V14.4941H133.737C133.881 14.4941 133.987 14.4508 134.094 14.3457C134.2 14.2407 134.244 14.1356 134.244 13.9935V10.2518C134.244 10.1097 134.2 10.0015 134.094 9.89958C134.003 9.81616 133.887 9.7729 133.737 9.7729H133.734Z" fill="#231816"/>
<path d="M118.4 22.8792V10.7828C118.397 10.5819 118.331 10.4892 118.272 10.4305C118.171 10.3286 118.059 10.2822 117.905 10.2822H113.322C113.181 10.2822 113.077 10.3255 112.977 10.4305C112.921 10.4892 112.852 10.5819 112.852 10.7828V21.8843C112.852 23.1078 112.422 24.1769 111.57 25.0574C110.712 25.9288 109.678 26.3675 108.484 26.3675C107.29 26.3675 106.235 25.9288 105.379 25.0605C104.54 24.1707 104.117 23.1078 104.117 21.8843V10.7828C104.117 10.6375 104.076 10.5449 103.979 10.4583L103.938 10.4182C103.85 10.3224 103.76 10.2853 103.625 10.2853H101.131H97.5405C97.4715 10.2853 97.434 10.3008 97.3901 10.3533L97.3556 10.3904C97.3024 10.4429 97.293 10.48 97.293 10.5294C97.293 10.6067 97.3086 10.6437 97.387 10.6963L97.4872 10.7766L97.7473 11.033C98.2736 11.5181 98.5524 12.1454 98.5524 12.8838V23.494C98.5524 24.9678 98.9754 26.2748 99.837 27.4551C100.263 28.1781 100.818 28.7991 101.501 29.312C102.018 29.6952 102.607 30.0103 103.255 30.2668C104.339 30.7735 105.505 31.0299 106.742 31.0299C107.034 31.0299 107.312 31.0299 107.579 31.0238C107.676 31.0238 107.767 31.0299 107.867 31.0299C109.838 31.0299 111.495 30.721 112.848 30.1092V31.8704C112.776 32.5069 112.529 33.0754 112.097 33.5759C111.589 34.1568 110.969 34.475 110.242 34.5337H107.115C106.871 34.5337 106.664 34.6172 106.492 34.7902C106.319 34.9601 106.232 35.1671 106.232 35.405V39.1344C106.232 39.3754 106.319 39.5793 106.492 39.7492C106.664 39.9192 106.871 40.0057 107.115 40.0057H110.12C111.429 40.0057 112.57 39.7987 113.544 39.3877C114.399 39.1313 115.154 38.776 115.797 38.3187C117.529 37.0642 118.397 35.1208 118.41 32.4821V22.907C118.41 22.907 118.41 22.8915 118.41 22.8853L118.4 22.8792Z" fill="#231816"/>
<path d="M145.119 30.814C145.304 30.8233 145.495 30.8295 145.686 30.8295C146.335 30.8357 146.983 30.8326 147.632 30.8295C147.81 30.8295 147.992 30.8295 148.171 30.8295C148.262 30.8295 148.334 30.7553 148.334 30.6688V25.4008C148.334 25.3112 148.258 25.2401 148.171 25.2401C147.434 25.237 146.695 25.2216 145.959 25.2277C144.919 25.237 143.998 24.0598 143.712 23.17C143.459 22.3759 143.352 20.831 143.324 20.3552L143.318 20.21H143.427L143.318 20.2038C143.321 20.0153 143.33 0.800121 143.33 0.605466C143.33 0.494235 143.299 0.420081 143.217 0.339747C143.136 0.259413 143.061 0.228516 142.948 0.228516H136.456L136.419 0.250144L136.362 0.311939V0.349016C136.362 0.349016 136.375 0.355196 136.387 0.364465L136.5 0.450978L136.773 0.716697C137.308 1.20797 137.594 1.83828 137.616 2.57982V2.70959C137.606 3.12671 137.612 3.60253 137.616 4.16487V4.29773L137.619 22.3635C137.622 22.5273 137.628 22.6911 137.634 22.8548C137.703 24.6191 138.092 26.4482 139.166 27.8973C140.144 29.2197 141.573 30.0818 143.161 30.5174C143.816 30.6966 144.458 30.7769 145.119 30.8078V30.814Z" fill="#231816"/>
<path d="M90.8607 12.3934C88.7741 10.4438 86.2207 9.45508 83.2694 9.45508C80.3181 9.45508 77.8587 10.5118 75.7595 12.5943C73.6447 14.6922 72.5732 17.2444 72.5732 20.1765C72.5732 23.1087 73.6729 25.6485 75.8441 27.7773C77.9715 29.8629 80.4716 30.9196 83.2725 30.9196C86.628 30.9196 89.4665 29.9649 91.7098 28.0832C91.8257 27.9627 91.8821 27.8299 91.8884 27.6568C91.8884 27.49 91.832 27.3448 91.7035 27.2088L89.5574 24.9657C89.4227 24.8266 89.2848 24.7432 89.1313 24.7092C89.1188 24.7092 89.0875 24.703 89.0593 24.703C88.9966 24.703 88.9433 24.7154 88.8744 24.7834C88.8744 24.7834 88.8681 24.7865 88.8587 24.7926L88.8462 24.7741C88.7365 24.8452 88.6238 24.9224 88.5016 25.0089C87.7778 25.5187 86.6875 26.285 84.0339 26.285C81.3802 26.285 78.739 24.357 77.9652 21.5916H93.5457C93.7055 21.5916 93.8215 21.5453 93.9248 21.4433C94.0282 21.3414 94.0752 21.2271 94.0752 21.0695V19.7656C94.0752 16.8149 93.0225 14.4018 90.8576 12.3903L90.8607 12.3934ZM78.1218 17.8778C78.9364 15.4863 81.0356 13.8364 83.4386 13.8364C85.8416 13.8364 87.9376 15.4832 88.7522 17.8778H78.1218Z" fill="#231816"/>
</svg>
