<svg width="150" height="105" viewBox="0 0 150 105" fill="none" xmlns="http://www.w3.org/2000/svg">
<mask id="mask0_464_2155" style="mask-type:alpha" maskUnits="userSpaceOnUse" x="0" y="0" width="150" height="105">
<rect width="150" height="105" fill="#D9D9D9"/>
</mask>
<g mask="url(#mask0_464_2155)">
</g>
<g clip-path="url(#clip0_464_2155)">
<path d="M41.7234 77.4578C39.5209 75.329 36.8233 74.2476 33.7028 74.2476C30.5823 74.2476 27.9036 75.3259 25.7042 77.4578C23.5079 79.5836 22.3926 82.1821 22.3926 85.1853C22.3926 88.1885 23.5079 90.787 25.7042 92.9128C27.9036 95.0416 30.5949 96.1199 33.7028 96.1199C36.8108 96.1199 39.524 95.0416 41.7234 92.9128C43.9196 90.787 45.035 88.1855 45.035 85.1853C45.035 82.1851 43.9196 79.5836 41.7234 77.4578ZM33.7122 91.5039C30.175 91.5039 27.3052 88.6736 27.3052 85.1822C27.3052 81.6908 30.175 78.8637 33.7122 78.8637C37.2494 78.8637 40.1193 81.6939 40.1193 85.1822C40.1193 88.6705 37.2494 91.5039 33.7122 91.5039Z" fill="#ED32D1"/>
<path d="M33.7589 104.929C30.4128 104.929 27.6714 103.344 25.6851 101.951V96.9018L25.6976 96.8926C25.7289 96.9358 28.9873 100.492 33.7589 100.492C38.5305 100.492 41.3157 97.217 41.5225 96.9327V102.08C39.6051 103.424 36.9859 104.926 33.7589 104.926V104.929Z" fill="#ED32D1"/>
<path d="M32.3837 88.4854C32.5466 88.6461 32.8192 88.6461 32.9915 88.4854L36.8764 85.6243C37.0456 85.4606 37.0456 85.1979 36.8764 85.0218L32.9915 82.1669C32.8192 82.0062 32.5497 82.0062 32.3837 82.1669C32.3837 82.1669 32.2803 82.2688 32.2803 82.5129V88.1178C32.2803 88.1178 32.2584 88.3464 32.3837 88.4854Z" fill="#ED32D1"/>
<path d="M17.1226 90.0951C17.0129 89.9777 16.9001 89.9252 16.756 89.9097C16.6119 89.8943 16.4709 89.9252 16.3393 90.0117C15.0767 90.8274 13.7859 91.2383 12.5014 91.2383C10.9505 91.2383 9.57824 90.6389 8.42528 89.4524C7.27859 88.2598 6.69898 86.82 6.69898 85.1731C6.69898 83.5263 7.27859 82.0834 8.42215 80.8784C9.58137 79.6888 10.9505 79.0863 12.5014 79.0863C13.7828 79.0863 15.0704 79.5034 16.3299 80.3284C16.4615 80.4025 16.6025 80.4303 16.756 80.4149C16.9095 80.3994 17.038 80.3438 17.157 80.2388L19.5726 77.7484C19.7199 77.6125 19.7355 77.5043 19.7324 77.4147C19.7293 77.3097 19.6979 77.1706 19.5193 77.0162C17.4954 75.3168 14.9357 74.4517 11.9155 74.4517C8.89524 74.4517 6.33555 75.5084 4.20509 77.5939C2.07776 79.6795 1 82.2286 1 85.1731C1 88.1177 2.07776 90.6667 4.20509 92.7523C6.33242 94.8379 8.92657 95.8946 11.9155 95.8946C14.9044 95.8946 17.5737 94.9275 19.7136 93.0242C19.7355 92.9933 19.7418 92.9593 19.7355 92.9006C19.723 92.7955 19.676 92.7029 19.5851 92.6071L17.1226 90.0951Z" fill="#2C3AF1"/>
<path d="M67.3544 76.6979C65.6531 75.2056 63.6793 74.4517 61.4831 74.4517C59.2868 74.4517 57.6702 75.1376 56.1976 76.5527L55.1794 77.526V75.2735C55.1794 75.1252 55.1355 75.0109 55.0384 74.9059C54.935 74.7977 54.8348 74.7514 54.6938 74.7514H48.4497C48.3807 74.7514 48.3463 74.7668 48.2993 74.8193L48.2648 74.8564C48.2115 74.9089 48.2021 74.946 48.2021 74.9924C48.2021 75.0696 48.2147 75.1067 48.2961 75.1592L48.3964 75.2395L48.6564 75.496C49.1859 75.9811 49.4616 76.6083 49.4616 77.3468V94.9893C49.4616 95.1901 49.5306 95.2828 49.5901 95.3415C49.6935 95.4435 49.8094 95.4898 49.9692 95.4898H54.6938C54.841 95.4898 54.9476 95.4466 55.051 95.3415C55.1105 95.2828 55.1794 95.1901 55.1794 94.9893V83.5912C55.1794 82.3676 55.6243 81.2986 56.5015 80.418C57.3851 79.5467 58.4534 79.1079 59.6816 79.1079C60.9097 79.1079 62 79.5467 62.8804 80.4149C63.7482 81.3047 64.1837 82.3676 64.1837 83.5912V94.9893C64.1837 95.1345 64.2245 95.2272 64.3247 95.3137L64.3686 95.3539C64.4563 95.4496 64.5503 95.4867 64.6913 95.4867H69.419C69.5757 95.4867 69.6947 95.4404 69.7981 95.3384C69.8577 95.2797 69.9266 95.187 69.9266 94.9862V81.9876C69.9266 79.936 69.0838 78.2057 67.3544 76.6979Z" fill="#2C3AF1"/>
<path d="M134.734 74.7729H131.209V72.0879C131.209 71.4483 131.431 70.8922 131.873 70.438C132.343 69.9745 132.895 69.7428 133.521 69.7428H134.151C134.295 69.7428 134.402 69.6995 134.508 69.5945C134.611 69.4894 134.658 69.3844 134.658 69.2422V65.5005C134.658 65.3584 134.615 65.2503 134.508 65.1483C134.402 65.0463 134.295 65 134.151 65H133.327C131.14 65 129.313 65.7106 127.753 67.169C126.218 68.6181 125.469 70.3113 125.469 72.3444V74.7729H122.809C122.659 74.7729 122.543 74.8162 122.436 74.915C122.346 75.0046 122.302 75.1097 122.302 75.2518V78.9935C122.302 79.1356 122.346 79.2407 122.452 79.3457C122.559 79.4477 122.665 79.4941 122.809 79.4941H125.469V94.9892C125.469 95.1344 125.513 95.2395 125.62 95.3414C125.723 95.4465 125.833 95.4897 125.977 95.4897H130.705C130.849 95.4897 130.955 95.4465 131.062 95.3414C131.165 95.2395 131.212 95.1313 131.212 94.9892V79.4941H134.737C134.881 79.4941 134.987 79.4508 135.094 79.3457C135.2 79.2407 135.244 79.1356 135.244 78.9935V75.2518C135.244 75.1097 135.2 75.0015 135.094 74.8996C135.003 74.8162 134.887 74.7729 134.737 74.7729H134.734Z" fill="#2C3AF1"/>
<path d="M119.4 87.8797V75.7833C119.397 75.5824 119.331 75.4897 119.272 75.431C119.171 75.3291 119.059 75.2827 118.905 75.2827H114.322C114.181 75.2827 114.077 75.326 113.977 75.431C113.921 75.4897 113.852 75.5824 113.852 75.7833V86.8848C113.852 88.1083 113.422 89.1774 112.57 90.0579C111.712 90.9292 110.678 91.368 109.484 91.368C108.29 91.368 107.235 90.9292 106.379 90.061C105.54 89.1712 105.117 88.1083 105.117 86.8848V75.7833C105.117 75.638 105.076 75.5453 104.979 75.4588L104.938 75.4187C104.85 75.3229 104.76 75.2858 104.625 75.2858H102.131H98.5405C98.4715 75.2858 98.434 75.3013 98.3901 75.3538L98.3556 75.3909C98.3024 75.4434 98.293 75.4805 98.293 75.5299C98.293 75.6071 98.3086 75.6442 98.387 75.6967L98.4872 75.7771L98.7473 76.0335C99.2736 76.5186 99.5524 77.1458 99.5524 77.8843V88.4945C99.5524 89.9683 99.9754 91.2753 100.837 92.4556C101.263 93.1786 101.818 93.7996 102.501 94.3125C103.018 94.6957 103.607 95.0108 104.255 95.2673C105.339 95.774 106.505 96.0304 107.742 96.0304C108.034 96.0304 108.312 96.0304 108.579 96.0243C108.676 96.0243 108.767 96.0304 108.867 96.0304C110.838 96.0304 112.495 95.7215 113.848 95.1097V96.8708C113.776 97.5073 113.529 98.0759 113.097 98.5764C112.589 99.1573 111.969 99.4755 111.242 99.5342H108.115C107.871 99.5342 107.664 99.6176 107.492 99.7907C107.319 99.9606 107.232 100.168 107.232 100.406V104.135C107.232 104.376 107.319 104.58 107.492 104.75C107.664 104.92 107.871 105.006 108.115 105.006H111.12C112.429 105.006 113.57 104.799 114.544 104.388C115.399 104.132 116.154 103.776 116.797 103.319C118.529 102.065 119.397 100.121 119.41 97.4826V87.9075C119.41 87.9075 119.41 87.892 119.41 87.8858L119.4 87.8797Z" fill="#2C3AF1"/>
<path d="M146.119 95.814C146.303 95.8233 146.495 95.8295 146.686 95.8295C147.334 95.8357 147.983 95.8326 148.631 95.8295C148.81 95.8295 148.992 95.8295 149.17 95.8295C149.261 95.8295 149.333 95.7553 149.333 95.6688V90.4008C149.333 90.3112 149.258 90.2401 149.17 90.2401C148.434 90.237 147.695 90.2216 146.958 90.2277C145.918 90.237 144.997 89.0598 144.712 88.17C144.458 87.3759 144.352 85.831 144.323 85.3552L144.317 85.21H144.427L144.317 85.2038C144.32 85.0153 144.33 65.8001 144.33 65.6055C144.33 65.4942 144.298 65.4201 144.217 65.3397C144.135 65.2594 144.06 65.2285 143.947 65.2285H137.456L137.418 65.2501L137.362 65.3119V65.349C137.362 65.349 137.374 65.3552 137.387 65.3645L137.5 65.451L137.772 65.7167C138.308 66.208 138.593 66.8383 138.615 67.5798V67.7096C138.606 68.1267 138.612 68.6025 138.615 69.1649V69.2977L138.618 87.3635C138.621 87.5273 138.628 87.6911 138.634 87.8548C138.703 89.6191 139.091 91.4482 140.166 92.8973C141.143 94.2197 142.572 95.0818 144.16 95.5174C144.815 95.6966 145.458 95.7769 146.119 95.8078V95.814Z" fill="#2C3AF1"/>
<path d="M91.8612 77.3929C89.7746 75.4433 87.2212 74.4546 84.2699 74.4546C81.3186 74.4546 78.8592 75.5113 76.76 77.5938C74.6452 79.6917 73.5737 82.2439 73.5737 85.1761C73.5737 88.1082 74.6734 90.648 76.8446 92.7769C78.9719 94.8624 81.4721 95.9191 84.273 95.9191C87.6285 95.9191 90.467 94.9644 92.7103 93.0827C92.8262 92.9622 92.8826 92.8294 92.8889 92.6564C92.8889 92.4895 92.8325 92.3443 92.704 92.2083L90.5579 89.9652C90.4232 89.8261 90.2853 89.7427 90.1318 89.7087C90.1193 89.7087 90.0879 89.7025 90.0597 89.7025C89.9971 89.7025 89.9438 89.7149 89.8749 89.7829C89.8749 89.7829 89.8686 89.786 89.8592 89.7921L89.8467 89.7736C89.737 89.8447 89.6243 89.9219 89.5021 90.0084C88.7783 90.5182 87.688 91.2845 85.0344 91.2845C82.3807 91.2845 79.7395 89.3565 78.9657 86.5912H94.5462C94.706 86.5912 94.8219 86.5448 94.9253 86.4429C95.0287 86.3409 95.0757 86.2266 95.0757 86.069V84.7651C95.0757 81.8144 94.023 79.4013 91.8581 77.3899L91.8612 77.3929ZM79.1223 82.8773C79.9369 80.4858 82.036 78.8359 84.4391 78.8359C86.8421 78.8359 88.9381 80.4827 89.7527 82.8773H79.1223Z" fill="#2C3AF1"/>
</g>
<path d="M89.1635 8.34838C85.1571 4.47593 80.2501 2.50879 74.5738 2.50879C68.8975 2.50879 64.0247 4.47031 60.024 8.34838C56.0289 12.2152 54 16.942 54 22.405C54 27.868 56.0289 32.5948 60.024 36.4616C64.0247 40.3341 68.9203 42.2956 74.5738 42.2956C80.2273 42.2956 85.1628 40.3341 89.1635 36.4616C93.1586 32.5948 95.1875 27.8624 95.1875 22.405C95.1875 16.9476 93.1586 12.2152 89.1635 8.34838ZM74.5909 33.8987C68.1566 33.8987 62.9362 28.7504 62.9362 22.3994C62.9362 16.0483 68.1566 10.9057 74.5909 10.9057C81.0252 10.9057 86.2456 16.0539 86.2456 22.3994C86.2456 28.7448 81.0252 33.8987 74.5909 33.8987Z" fill="white"/>
<path d="M74.6754 58.3188C68.5887 58.3188 63.602 55.4356 59.9888 52.9008V43.7171L60.0116 43.7002C60.0686 43.7789 65.9956 50.248 74.6754 50.248C83.3551 50.248 88.4216 44.2903 88.7978 43.7733V53.1368C85.3099 55.5817 80.5455 58.3132 74.6754 58.3132V58.3188Z" fill="white"/>
<path d="M72.1742 28.4082C72.4705 28.7005 72.9663 28.7005 73.2798 28.4082L80.3467 23.2037C80.6544 22.9059 80.6544 22.4281 80.3467 22.1078L73.2798 16.9145C72.9663 16.6222 72.4762 16.6222 72.1742 16.9145C72.1742 16.9145 71.9861 17.1 71.9861 17.544V27.7394C71.9861 27.7394 71.9462 28.1553 72.1742 28.4082Z" fill="white"/>
<defs>
<clipPath id="clip0_464_2155">
<rect width="148.333" height="40" fill="white" transform="translate(1 65)"/>
</clipPath>
</defs>
</svg>
