<svg width="22" height="23" viewBox="0 0 22 23" fill="none" xmlns="http://www.w3.org/2000/svg">
<g clip-path="url(#clip0_236_1516)">
<path fill-rule="evenodd" clip-rule="evenodd" d="M21.9999 11.4795C21.9999 10.6833 21.928 9.91877 21.7958 9.18385H11.2246V13.5257H17.2658C17.0056 14.9289 16.2147 16.1175 15.0261 16.9137V19.7297H18.6542C20.7764 17.7755 22.001 14.8982 22.001 11.4795H21.9999Z" fill="#3E82F1"/>
<path fill-rule="evenodd" clip-rule="evenodd" d="M11.2242 22.4494C14.2548 22.4494 16.7959 21.4438 18.6527 19.7297L15.0247 16.9137C14.019 17.5873 12.7342 17.9849 11.2232 17.9849C8.29934 17.9849 5.82494 16.0107 4.94198 13.3576H1.19336V16.2655C3.0407 19.9338 6.83585 22.4494 11.2242 22.4494Z" fill="#32A753"/>
<path fill-rule="evenodd" clip-rule="evenodd" d="M4.94352 13.3576C4.71935 12.684 4.5914 11.9649 4.5914 11.2247C4.5914 10.4845 4.71935 9.76544 4.94352 9.09185V6.1839H1.19385C0.43355 7.69921 0 9.41331 0 11.2247C0 13.0361 0.43355 14.7502 1.19385 16.2655L4.94352 13.3576Z" fill="#F9BB00"/>
<path fill-rule="evenodd" clip-rule="evenodd" d="M11.2242 4.4645C12.8717 4.4645 14.3521 5.03129 15.5153 6.14266L18.7352 2.92276C16.7906 1.11242 14.2495 0 11.2242 0C6.83585 0 3.0407 2.51565 1.19336 6.1839L4.94304 9.09185C5.826 6.43874 8.3004 4.4645 11.2242 4.4645Z" fill="#E74133"/>
</g>
<defs>
<clipPath id="clip0_236_1516">
<rect width="22" height="22.4494" fill="white"/>
</clipPath>
</defs>
</svg>
