<svg width="196" height="52" viewBox="0 0 196 52" fill="none" xmlns="http://www.w3.org/2000/svg">
<mask id="mask0_823_1620" style="mask-type:alpha" maskUnits="userSpaceOnUse" x="0" y="0" width="196" height="52">
<rect width="196" height="52" fill="#D9D9D9"/>
</mask>
<g mask="url(#mask0_823_1620)">
<path d="M42.9929 21.0454C40.6677 18.7979 37.8198 17.6562 34.5253 17.6562C31.2309 17.6562 28.4029 18.7947 26.0809 21.0454C23.7622 23.2897 22.5847 26.033 22.5847 29.2036C22.5847 32.3743 23.7622 35.1176 26.0809 37.3618C28.4029 39.6093 31.2442 40.7477 34.5253 40.7477C37.8065 40.7477 40.671 39.6093 42.9929 37.3618C45.3116 35.1176 46.4891 32.371 46.4891 29.2036C46.4891 26.0363 45.3116 23.2897 42.9929 21.0454ZM34.5353 35.8744C30.8009 35.8744 27.7711 32.8864 27.7711 29.2004C27.7711 25.5143 30.8009 22.5296 34.5353 22.5296C38.2696 22.5296 41.2994 25.5176 41.2994 29.2004C41.2994 32.8831 38.2696 35.8744 34.5353 35.8744Z" fill="#ED32D1"/>
<path d="M34.5847 50.0476C31.0522 50.0476 28.158 48.3742 26.0609 46.9031V41.573L26.0741 41.5632C26.1072 41.6089 29.5472 45.3634 34.5847 45.3634C39.6223 45.3634 42.5628 41.9057 42.7811 41.6056V47.0401C40.7568 48.459 37.9916 50.0444 34.5847 50.0444V50.0476Z" fill="#ED32D1"/>
<path d="M33.1329 32.6873C33.3049 32.857 33.5927 32.857 33.7746 32.6873L37.8761 29.6668C38.0547 29.4939 38.0547 29.2166 37.8761 29.0307L33.7746 26.0166C33.5927 25.847 33.3082 25.847 33.1329 26.0166C33.1329 26.0166 33.0238 26.1243 33.0238 26.382V32.2992C33.0238 32.2992 33.0006 32.5406 33.1329 32.6873Z" fill="#ED32D1"/>
<path d="M17.0212 34.3869C16.9054 34.2629 16.7863 34.2075 16.6342 34.1912C16.482 34.1748 16.3332 34.2075 16.1943 34.2988C14.8613 35.16 13.4985 35.5938 12.1424 35.5938C10.5051 35.5938 9.05636 34.961 7.83914 33.7084C6.62854 32.4493 6.01662 30.9292 6.01662 29.1906C6.01662 27.4519 6.62854 25.9286 7.83583 24.6564C9.05967 23.4006 10.5051 22.7645 12.1424 22.7645C13.4952 22.7645 14.8547 23.2048 16.1844 24.0758C16.3233 24.1541 16.4721 24.1834 16.6342 24.1671C16.7963 24.1508 16.9319 24.0921 17.0576 23.9812L19.6078 21.352C19.7632 21.2085 19.7798 21.0943 19.7765 20.9998C19.7732 20.8888 19.7401 20.7421 19.5515 20.579C17.4148 18.7849 14.7124 17.8715 11.5239 17.8715C8.33529 17.8715 5.63294 18.9871 3.38373 21.1889C1.13783 23.3908 0 26.0819 0 29.1906C0 32.2992 1.13783 34.9903 3.38373 37.1922C5.62963 39.394 8.36837 40.5096 11.5239 40.5096C14.6794 40.5096 17.4975 39.4886 19.7566 37.4792C19.7798 37.4466 19.7864 37.4107 19.7798 37.3487C19.7665 37.2378 19.7169 37.14 19.621 37.0389L17.0212 34.3869Z" fill="#2C3AF1"/>
<path d="M70.0529 20.243C68.2569 18.6674 66.1731 17.8715 63.8544 17.8715C61.5357 17.8715 59.829 18.5957 58.2744 20.0897L57.1994 21.1172V18.7392C57.1994 18.5826 57.1531 18.4619 57.0506 18.351C56.9414 18.2369 56.8356 18.1879 56.6867 18.1879H50.0946C50.0218 18.1879 49.9854 18.2042 49.9358 18.2597L49.8994 18.2988C49.8432 18.3543 49.8333 18.3934 49.8333 18.4424C49.8333 18.5239 49.8465 18.5631 49.9325 18.6185L50.0383 18.7033L50.3129 18.9741C50.8719 19.4862 51.1629 20.1484 51.1629 20.928V39.5538C51.1629 39.7659 51.2357 39.8637 51.2985 39.9257C51.4077 40.0333 51.5301 40.0823 51.6988 40.0823H56.6867C56.8422 40.0823 56.9546 40.0366 57.0638 39.9257C57.1266 39.8637 57.1994 39.7659 57.1994 39.5538V27.5204C57.1994 26.2287 57.6691 25.1 58.5952 24.1704C59.528 23.2505 60.6559 22.7873 61.9525 22.7873C63.2491 22.7873 64.4002 23.2505 65.3296 24.1671C66.2458 25.1066 66.7056 26.2287 66.7056 27.5204V39.5538C66.7056 39.7071 66.7486 39.805 66.8544 39.8963L66.9007 39.9387C66.9934 40.0399 67.0926 40.079 67.2414 40.079H72.2327C72.3981 40.079 72.5238 40.0301 72.6329 39.9224C72.6958 39.8605 72.7685 39.7626 72.7685 39.5506V25.8275C72.7685 23.6615 71.8788 21.8348 70.0529 20.243Z" fill="#2C3AF1"/>
<path d="M141.187 18.2107H137.466V15.376C137.466 14.7008 137.701 14.1136 138.168 13.6341C138.664 13.1448 139.246 12.9002 139.907 12.9002H140.572C140.724 12.9002 140.837 12.8545 140.949 12.7436C141.058 12.6327 141.108 12.5218 141.108 12.3718V8.42151C141.108 8.27145 141.062 8.15729 140.949 8.04964C140.837 7.942 140.724 7.89307 140.572 7.89307H139.702C137.394 7.89307 135.465 8.64332 133.818 10.183C132.197 11.7128 131.407 13.5004 131.407 15.6468V18.2107H128.598C128.44 18.2107 128.317 18.2563 128.205 18.3607C128.109 18.4553 128.063 18.5662 128.063 18.7163V22.6665C128.063 22.8166 128.109 22.9275 128.221 23.0384C128.334 23.146 128.446 23.195 128.598 23.195H131.407V39.5537C131.407 39.7071 131.453 39.818 131.565 39.9256C131.675 40.0365 131.79 40.0822 131.942 40.0822H136.934C137.086 40.0822 137.198 40.0365 137.311 39.9256C137.42 39.818 137.47 39.7038 137.47 39.5537V23.195H141.191C141.343 23.195 141.455 23.1493 141.568 23.0384C141.68 22.9275 141.727 22.8166 141.727 22.6665V18.7163C141.727 18.5662 141.68 18.4521 141.568 18.3444C141.472 18.2563 141.349 18.2107 141.191 18.2107H141.187Z" fill="#2C3AF1"/>
<path d="M124.999 32.048V19.2774C124.996 19.0654 124.927 18.9675 124.864 18.9055C124.758 18.7979 124.639 18.749 124.477 18.749H119.638C119.489 18.749 119.38 18.7946 119.274 18.9055C119.214 18.9675 119.142 19.0654 119.142 19.2774V30.9977C119.142 32.2894 118.688 33.418 117.789 34.3477C116.882 35.2676 115.791 35.7308 114.531 35.7308C113.271 35.7308 112.156 35.2676 111.253 34.351C110.366 33.4115 109.92 32.2894 109.92 30.9977V19.2774C109.92 19.1241 109.877 19.0262 109.774 18.9349L109.731 18.8925C109.639 18.7914 109.543 18.7522 109.401 18.7522H106.768H102.977C102.904 18.7522 102.865 18.7685 102.818 18.824L102.782 18.8631C102.726 18.9186 102.716 18.9577 102.716 19.0099C102.716 19.0915 102.732 19.1306 102.815 19.1861L102.921 19.2709L103.195 19.5416C103.751 20.0538 104.045 20.7159 104.045 21.4955V32.6971C104.045 34.2531 104.492 35.6329 105.402 36.879C105.851 37.6423 106.437 38.2979 107.158 38.8394C107.704 39.2439 108.326 39.5766 109.01 39.8474C110.155 40.3823 111.385 40.6531 112.692 40.6531C112.999 40.6531 113.294 40.6531 113.575 40.6466C113.677 40.6466 113.773 40.6531 113.879 40.6531C115.96 40.6531 117.709 40.3269 119.138 39.681V41.5403C119.062 42.2123 118.801 42.8125 118.344 43.341C117.809 43.9542 117.154 44.2902 116.386 44.3522H113.085C112.827 44.3522 112.609 44.4402 112.427 44.6229C112.245 44.8023 112.153 45.0209 112.153 45.272V49.2092C112.153 49.4637 112.245 49.679 112.427 49.8584C112.609 50.0378 112.827 50.1291 113.085 50.1291H116.257C117.64 50.1291 118.844 49.9106 119.873 49.4767C120.776 49.206 121.573 48.8308 122.251 48.3481C124.08 47.0237 124.996 44.9719 125.009 42.1862V32.0774C125.009 32.0774 125.009 32.0611 125.009 32.0545L124.999 32.048Z" fill="#2C3AF1"/>
<path d="M153.207 40.4248C153.402 40.4345 153.604 40.4411 153.806 40.4411C154.491 40.4476 155.175 40.4443 155.86 40.4411C156.048 40.4411 156.24 40.4411 156.429 40.4411C156.525 40.4411 156.601 40.3628 156.601 40.2714V34.7098C156.601 34.6152 156.521 34.5402 156.429 34.5402C155.652 34.5369 154.871 34.5206 154.094 34.5271C152.995 34.5369 152.023 33.2941 151.722 32.3546C151.454 31.5163 151.342 29.8853 151.312 29.383L151.305 29.2297H151.421L151.305 29.2232C151.309 29.0242 151.319 8.73799 151.319 8.53248C151.319 8.41505 151.285 8.33676 151.199 8.25195C151.113 8.16714 151.034 8.13452 150.915 8.13452H144.062L144.022 8.15736L143.962 8.22259V8.26174C143.962 8.26174 143.976 8.26826 143.989 8.27805L144.108 8.36938L144.396 8.64991C144.961 9.16857 145.262 9.83401 145.285 10.6169V10.7539C145.275 11.1942 145.282 11.6966 145.285 12.2903V12.4305L145.289 31.5033C145.292 31.6762 145.299 31.849 145.305 32.0219C145.378 33.8845 145.788 35.8156 146.923 37.3455C147.955 38.7416 149.463 39.6517 151.14 40.1116C151.831 40.3008 152.509 40.3856 153.207 40.4182V40.4248Z" fill="#2C3AF1"/>
<path d="M95.9253 20.9769C93.7224 18.9186 91.0267 17.8748 87.9109 17.8748C84.7951 17.8748 82.1985 18.9903 79.9824 21.1889C77.7497 23.4038 76.6185 26.0982 76.6185 29.1938C76.6185 32.2894 77.7795 34.9707 80.0717 37.2182C82.3176 39.4201 84.9571 40.5357 87.9142 40.5357C91.4567 40.5357 94.4534 39.5277 96.8217 37.5412C96.9441 37.414 97.0036 37.2737 97.0102 37.091C97.0102 36.9149 96.9507 36.7616 96.8151 36.618L94.5493 34.2498C94.4071 34.1031 94.2616 34.015 94.0995 33.9791C94.0862 33.9791 94.0532 33.9726 94.0234 33.9726C93.9573 33.9726 93.901 33.9856 93.8283 34.0574C93.8283 34.0574 93.8216 34.0606 93.8117 34.0672L93.7985 34.0476C93.6827 34.1226 93.5636 34.2042 93.4346 34.2955C92.6706 34.8337 91.5195 35.6427 88.7179 35.6427C85.9163 35.6427 83.128 33.6072 82.311 30.6878H98.76C98.9287 30.6878 99.051 30.6388 99.1602 30.5312C99.2693 30.4236 99.319 30.3029 99.319 30.1365V28.7599C99.319 25.6448 98.2076 23.0972 95.922 20.9736L95.9253 20.9769ZM82.4764 26.7669C83.3364 24.2421 85.5525 22.5002 88.0895 22.5002C90.6264 22.5002 92.8393 24.2389 93.6993 26.7669H82.4764Z" fill="#2C3AF1"/>
<path d="M171.89 12.788C172.786 12.0413 173.5 11.4207 174.032 10.926C174.564 10.422 175.008 9.89933 175.362 9.358C175.717 8.81667 175.894 8.28467 175.894 7.762C175.894 7.286 175.782 6.91267 175.558 6.642C175.334 6.37133 174.989 6.236 174.522 6.236C174.056 6.236 173.696 6.39467 173.444 6.712C173.192 7.02 173.062 7.44467 173.052 7.986H171.148C171.186 6.866 171.517 6.01667 172.142 5.438C172.777 4.85933 173.58 4.57 174.55 4.57C175.614 4.57 176.431 4.85467 177 5.424C177.57 5.984 177.854 6.726 177.854 7.65C177.854 8.378 177.658 9.07333 177.266 9.736C176.874 10.3987 176.426 10.9773 175.922 11.472C175.418 11.9573 174.76 12.5453 173.948 13.236H178.078V14.86H171.162V13.404L171.89 12.788ZM180.405 15.098C180.051 15.098 179.757 14.9907 179.523 14.776C179.299 14.552 179.187 14.2767 179.187 13.95C179.187 13.6233 179.299 13.3527 179.523 13.138C179.757 12.914 180.051 12.802 180.405 12.802C180.751 12.802 181.035 12.914 181.259 13.138C181.483 13.3527 181.595 13.6233 181.595 13.95C181.595 14.2767 181.483 14.552 181.259 14.776C181.035 14.9907 180.751 15.098 180.405 15.098ZM182.95 9.764C182.95 8.14933 183.239 6.88467 183.818 5.97C184.406 5.05533 185.377 4.598 186.73 4.598C188.083 4.598 189.049 5.05533 189.628 5.97C190.216 6.88467 190.51 8.14933 190.51 9.764C190.51 11.388 190.216 12.662 189.628 13.586C189.049 14.51 188.083 14.972 186.73 14.972C185.377 14.972 184.406 14.51 183.818 13.586C183.239 12.662 182.95 11.388 182.95 9.764ZM188.578 9.764C188.578 9.07333 188.531 8.49467 188.438 8.028C188.354 7.552 188.177 7.16467 187.906 6.866C187.645 6.56733 187.253 6.418 186.73 6.418C186.207 6.418 185.811 6.56733 185.54 6.866C185.279 7.16467 185.101 7.552 185.008 8.028C184.924 8.49467 184.882 9.07333 184.882 9.764C184.882 10.4733 184.924 11.0707 185.008 11.556C185.092 12.032 185.269 12.4193 185.54 12.718C185.811 13.0073 186.207 13.152 186.73 13.152C187.253 13.152 187.649 13.0073 187.92 12.718C188.191 12.4193 188.368 12.032 188.452 11.556C188.536 11.0707 188.578 10.4733 188.578 9.764Z" fill="#ED32D1"/>
<path d="M162.31 4.00055L162.31 4.00056L162.31 4.00055ZM162.31 4.00055L162.307 4.00077M162.31 4.00055L162.307 4.00077M162.307 4.00077C161.49 4.08685 160.719 4.43837 160.168 4.98403L160.168 4.98427M162.307 4.00077L160.168 4.98427M160.168 4.98427C159.577 5.57319 159.346 6.24393 159.264 7.49557L159.264 7.49557M160.168 4.98427L159.264 7.49557M159.264 7.49557L159.264 7.49652M159.264 7.49557L159.264 7.49652M159.264 7.49652C159.25 7.73689 159.241 9.62756 159.241 12.7373C159.241 15.8539 159.232 17.7344 159.218 17.96C159.152 18.985 159.109 19.3341 158.943 20.1208L158.943 20.1208L158.943 20.1221C158.92 20.2346 158.899 20.3378 158.883 20.4163L158.88 20.4304L158.86 20.5263L158.855 20.5543L158.853 20.5638L158.852 20.5695L158.851 20.575L158.851 20.575C158.851 20.576 158.85 20.5838 158.85 20.5934C158.85 20.6548 158.885 20.6924 158.901 20.7061C158.918 20.7207 158.933 20.728 158.94 20.7308C158.954 20.7369 158.965 20.7395 158.968 20.7402L158.969 20.7402C158.977 20.7422 158.985 20.743 158.987 20.7433C158.994 20.7441 159.001 20.7445 159.007 20.7448C159.019 20.7455 159.035 20.7461 159.055 20.7467C159.094 20.7478 159.149 20.7488 159.217 20.7497C159.353 20.7514 159.54 20.7526 159.745 20.7526H160.49H160.611L160.637 20.6344L160.648 20.5849L159.264 7.49652ZM163.242 4.92281L163.242 4.92281C163.155 4.9 163.024 4.88243 162.886 4.87466C162.748 4.86688 162.616 4.86963 162.529 4.88248L162.529 4.88255C162.193 4.93111 161.89 5.07641 161.649 5.30339L161.648 5.30375C161.306 5.62312 161.132 5.98764 161.03 6.65389C161.026 6.677 161.022 6.76023 161.018 6.93653C161.014 7.10798 161.011 7.3575 161.008 7.70314C161.002 8.39426 160.999 9.46725 160.997 11.0633L160.997 11.0634L160.988 15.2308L161.158 15.3448C161.158 15.3448 161.158 15.3448 161.158 15.3448C162.167 16.0208 162.799 16.2525 163.406 16.2144C163.764 16.1911 164.04 16.0871 164.335 15.865C164.907 15.4289 165.196 14.7256 165.237 13.5029C165.257 12.8473 165.182 12.2487 165.021 11.7463C164.934 11.4784 164.685 10.9755 164.488 10.6763L164.488 10.6755C164.399 10.5387 164.276 10.3644 164.171 10.2242C164.12 10.1547 164.074 10.0949 164.039 10.053C164.017 10.0594 163.992 10.067 163.965 10.075C163.535 10.2066 162.958 10.2593 162.595 10.1918C162.363 10.1496 162.166 10.0371 162.048 9.88447C161.927 9.7288 161.884 9.52063 162 9.33133L162.128 9.40954M163.242 4.92281L162.444 9.02827C162.354 9.04689 162.266 9.0882 162.191 9.13866C162.117 9.1889 162.046 9.2552 162 9.33155L162.128 9.40954M163.242 4.92281L163.243 4.9231C163.757 5.05469 164.187 5.45368 164.393 6.0007L163.242 4.92281ZM162.128 9.40954C161.976 9.65792 162.217 9.97069 162.622 10.0443C162.956 10.1064 163.508 10.0581 163.922 9.93159C164.004 9.90629 164.078 9.8856 164.087 9.8856C164.112 9.8856 164.432 10.3134 164.614 10.5939L164.697 6.91888C164.71 7.40644 164.68 7.68931 164.561 8.14926C164.444 8.60692 164.14 9.35665 164.073 9.35665C164.055 9.35665 163.933 9.33135 163.802 9.29915C163.229 9.16117 162.746 9.11517 162.475 9.17497C162.342 9.20256 162.192 9.30375 162.128 9.40954ZM163.681 4.05509C163.46 4.01633 163.274 4.00231 162.9 3.99766C162.9 3.99767 162.901 3.99767 162.901 3.99767L163.681 4.05509Z" fill="#ED32D1" stroke="#ED32D1" stroke-width="0.3"/>
</g>
</svg>
