<svg width="32" height="30" viewBox="0 0 32 30" fill="none" xmlns="http://www.w3.org/2000/svg">
<path d="M16.0804 0.513614C7.36906 0.513614 0.34375 6.1338 0.34375 12.9568C0.34375 17.3855 3.26628 21.2635 7.65007 23.4779L6.16633 29.0195C6.13835 29.1026 6.13405 29.1917 6.1539 29.277C6.17375 29.3624 6.21698 29.4406 6.27873 29.5028C6.36878 29.5822 6.48464 29.6261 6.60471 29.6264C6.70426 29.6184 6.7987 29.5791 6.87448 29.514L13.2591 25.209C14.2015 25.339 15.1515 25.4066 16.1029 25.4112C24.8031 25.4112 31.8396 19.791 31.8396 12.9568C31.8396 6.12256 24.7806 0.513614 16.0804 0.513614Z" fill="#392020"/>
<path d="M5.85069 10.9897H4.13089C3.91773 10.9959 3.70721 10.9413 3.52391 10.8323C3.44252 10.7813 3.37256 10.714 3.3184 10.6347C3.26423 10.5554 3.22705 10.4657 3.20917 10.3714C3.20371 10.3116 3.20371 10.2515 3.20917 10.1916C3.20383 10.0797 3.22556 9.96806 3.27252 9.8663C3.31949 9.76455 3.39029 9.67567 3.47894 9.60711C3.67491 9.46519 3.91144 9.39021 4.15337 9.39347H9.33524C9.5501 9.38592 9.76205 9.44482 9.94223 9.5621C10.0255 9.61084 10.097 9.67752 10.1514 9.75722C10.2058 9.83692 10.2419 9.92768 10.257 10.023C10.2624 10.0791 10.2624 10.1356 10.257 10.1916C10.2623 10.3052 10.2406 10.4184 10.1937 10.5219C10.1468 10.6255 10.076 10.7164 9.98719 10.7873C9.796 10.929 9.56176 11.0006 9.324 10.9897H7.66041V16.9022C7.66717 17.0281 7.64767 17.1541 7.60317 17.2721C7.55866 17.3901 7.49012 17.4977 7.40188 17.5878C7.31726 17.674 7.21555 17.7416 7.10327 17.7861C6.99098 17.8306 6.87062 17.8511 6.74992 17.8463C6.53882 17.8524 6.3322 17.7849 6.16542 17.6553C6.00665 17.5288 5.89888 17.3491 5.86193 17.1494C5.85082 17.0674 5.85082 16.9842 5.86193 16.9022L5.85069 10.9897Z" fill="#FEE500"/>
<path d="M10.7535 9.83187C10.803 9.64689 10.9191 9.48672 11.0795 9.38222C11.2504 9.28533 11.4452 9.23859 11.6415 9.24734H12.0687C12.277 9.23987 12.4832 9.29047 12.6644 9.39347C12.8564 9.52259 12.9929 9.71919 13.0466 9.94424L15.2947 16.2952C15.353 16.4608 15.4018 16.6298 15.4408 16.8011C15.4447 16.8722 15.4447 16.9434 15.4408 17.0146C15.4446 17.1241 15.4245 17.2332 15.3817 17.3341C15.339 17.4351 15.2748 17.5255 15.1935 17.5991C15.1148 17.6798 15.0202 17.7434 14.9158 17.786C14.8114 17.8285 14.6993 17.849 14.5865 17.8463C14.4132 17.8636 14.239 17.822 14.0922 17.7282C13.9454 17.6344 13.8344 17.4939 13.7772 17.3293L13.3051 15.9468H10.3489L9.87678 17.3293C9.82094 17.4971 9.70863 17.6404 9.55901 17.7347C9.40938 17.8289 9.23169 17.8684 9.05621 17.8463C8.86614 17.8513 8.67996 17.7919 8.52791 17.6777C8.37977 17.5599 8.27983 17.3921 8.2469 17.2057C8.24094 17.1421 8.24094 17.0781 8.2469 17.0146C8.2276 16.903 8.2276 16.789 8.2469 16.6774C8.2469 16.5538 8.32558 16.4188 8.37054 16.2952L10.7535 9.83187ZM11.8776 11.3044L10.8097 14.6766H12.9342L11.8776 11.3044Z" fill="#FEE500"/>
<path d="M15.6982 10.1918C15.6868 9.93951 15.7757 9.69301 15.9455 9.50611C16.0318 9.41904 16.1355 9.35099 16.2497 9.30646C16.3639 9.26193 16.4862 9.24179 16.6087 9.24746C16.8193 9.245 17.0248 9.31223 17.1932 9.4386C17.3493 9.57045 17.453 9.75386 17.4855 9.95562C17.4965 10.0339 17.4965 10.1135 17.4855 10.1918V16.1043H20.5766C20.7909 16.1015 21.0015 16.1599 21.1836 16.2728C21.2654 16.3232 21.3358 16.3904 21.39 16.4698C21.4442 16.5492 21.4811 16.6391 21.4983 16.7337C21.4983 16.7337 21.4983 16.8461 21.4983 16.9023C21.5037 17.0142 21.4819 17.1257 21.435 17.2275C21.388 17.3293 21.3172 17.4183 21.2286 17.4868C21.0326 17.6288 20.7961 17.7036 20.5541 17.7003H16.7548C16.5129 17.7159 16.2724 17.6529 16.0692 17.5206C15.8874 17.3847 15.7663 17.1829 15.732 16.9586C15.7237 16.8351 15.7237 16.711 15.732 16.5875L15.6982 10.1918Z" fill="#FEE500"/>
<path d="M21.7008 10.1918C21.694 9.9403 21.7823 9.69549 21.9481 9.50616C22.1165 9.35308 22.3326 9.26268 22.5599 9.2504C22.7872 9.23811 23.0118 9.30462 23.1958 9.43865C23.3553 9.56935 23.4629 9.75267 23.4992 9.95567C23.5048 10.0343 23.5048 10.1132 23.4992 10.1918V12.9457L26.3431 9.66341C26.4527 9.55144 26.569 9.44643 26.6916 9.34878C26.807 9.28003 26.9394 9.24489 27.0737 9.24752C27.2702 9.24644 27.4623 9.30529 27.6245 9.41615C27.7009 9.46762 27.7662 9.53402 27.8164 9.61127C27.8666 9.68852 27.9008 9.77506 27.9168 9.8658C27.9213 9.88805 27.9213 9.91106 27.9168 9.93331C27.9113 9.95925 27.9113 9.98599 27.9168 10.0119C27.9164 10.1302 27.8854 10.2464 27.8268 10.3492C27.7672 10.458 27.6956 10.5597 27.6133 10.6526L25.7473 12.6984L27.9954 16.183V16.2953C28.1122 16.4564 28.2032 16.6347 28.2652 16.8237V16.8799C28.2782 17.0101 28.2594 17.1416 28.2105 17.263C28.1616 17.3843 28.0839 17.492 27.9842 17.5768C27.7967 17.7185 27.5673 17.7937 27.3323 17.7904C27.1761 17.7968 27.021 17.7618 26.8826 17.6891C26.7329 17.5887 26.6096 17.4538 26.5229 17.2958L24.4322 13.9236L23.4318 14.969V16.8461C23.4385 17.0976 23.3502 17.3424 23.1845 17.5318C23.0957 17.6186 22.99 17.6864 22.874 17.7309C22.7581 17.7753 22.6342 17.7956 22.5101 17.7904C22.3027 17.7947 22.1001 17.7272 21.9368 17.5993C21.778 17.4727 21.6703 17.2932 21.6333 17.0935C21.6222 17.0114 21.6222 16.9282 21.6333 16.8461L21.7008 10.1918Z" fill="#FEE500"/>
</svg>
