<svg width="26" height="19" viewBox="0 0 26 19" fill="none" xmlns="http://www.w3.org/2000/svg">
<path d="M19.9998 11.3533V7.99357H16.4998V5.75377H19.9998V2.39409H22.3332V5.75377H25.8332V7.99357H22.3332V11.3533H19.9998ZM9.49984 9.11346C8.2165 9.11346 7.11789 8.67484 6.204 7.79758C5.29012 6.92033 4.83317 5.86576 4.83317 4.63388C4.83317 3.40199 5.29012 2.34743 6.204 1.47017C7.11789 0.592923 8.2165 0.154297 9.49984 0.154297C10.7832 0.154297 11.8818 0.592923 12.7957 1.47017C13.7096 2.34743 14.1665 3.40199 14.1665 4.63388C14.1665 5.86576 13.7096 6.92033 12.7957 7.79758C11.8818 8.67484 10.7832 9.11346 9.49984 9.11346ZM0.166504 18.0726V14.9369C0.166504 14.3023 0.336643 13.719 0.676921 13.1871C1.0172 12.6551 1.46928 12.2492 2.03317 11.9692C3.23873 11.3906 4.46373 10.9566 5.70817 10.6673C6.95262 10.378 8.2165 10.2334 9.49984 10.2334C10.7832 10.2334 12.0471 10.378 13.2915 10.6673C14.5359 10.9566 15.761 11.3906 16.9665 11.9692C17.5304 12.2492 17.9825 12.6551 18.3228 13.1871C18.663 13.719 18.8332 14.3023 18.8332 14.9369V18.0726H0.166504ZM2.49984 15.8328H16.4998V14.9369C16.4998 14.7316 16.4464 14.545 16.3394 14.377C16.2325 14.209 16.0915 14.0783 15.9165 13.985C14.8665 13.4811 13.8068 13.1031 12.7373 12.8511C11.6679 12.5991 10.5887 12.4731 9.49984 12.4731C8.41095 12.4731 7.33178 12.5991 6.26234 12.8511C5.19289 13.1031 4.13317 13.4811 3.08317 13.985C2.90817 14.0783 2.7672 14.209 2.66025 14.377C2.55331 14.545 2.49984 14.7316 2.49984 14.9369V15.8328ZM9.49984 6.87367C10.1415 6.87367 10.6908 6.65436 11.1478 6.21573C11.6047 5.77711 11.8332 5.24982 11.8332 4.63388C11.8332 4.01794 11.6047 3.49065 11.1478 3.05203C10.6908 2.6134 10.1415 2.39409 9.49984 2.39409C8.85817 2.39409 8.30887 2.6134 7.85192 3.05203C7.39498 3.49065 7.1665 4.01794 7.1665 4.63388C7.1665 5.24982 7.39498 5.77711 7.85192 6.21573C8.30887 6.65436 8.85817 6.87367 9.49984 6.87367Z" fill="#1C1B1F"/>
</svg>
